<svg width="34" height="34" viewBox="0 0 34 34" fill="none" xmlns="http://www.w3.org/2000/svg">
<g clip-path="url(#clip0_301_2)">
<path d="M34 26.333C33.5052 26.5202 32.9589 26.5198 32.4644 26.3319C31.9698 26.1439 31.5611 25.7815 31.3154 25.313L26.4279 18.5541L25.7196 17.6092L20.0487 25.3215C19.8177 25.7704 19.4312 26.1198 18.9614 26.3044C18.4915 26.489 17.9706 26.4961 17.4958 26.3245L24.803 16.5212L18.0058 7.6656C18.4946 7.48947 19.0291 7.48713 19.5193 7.65898C20.0096 7.83083 20.4257 8.16637 20.6975 8.6091L25.7635 15.4516L30.8578 8.63743C31.0906 8.19654 31.4772 7.85655 31.9442 7.68207C32.4112 7.50759 32.926 7.51081 33.3908 7.6911L30.753 11.1917L27.1802 15.8426C27.0809 15.9311 27.0016 16.0396 26.9472 16.1609C26.8928 16.2823 26.8647 16.4137 26.8647 16.5467C26.8647 16.6796 26.8928 16.8111 26.9472 16.9324C27.0016 17.0538 27.0809 17.1623 27.1802 17.2508L33.9858 26.3344L34 26.333ZM0.00283507 16.3993L0.597835 13.4598C2.23267 7.64718 8.89667 5.22893 13.481 8.82726C16.1656 10.9367 16.8357 13.923 16.7039 17.289H1.581C1.33592 23.2999 5.67375 26.9294 11.22 25.075C12.1191 24.7514 12.9239 24.2098 13.5623 23.4987C14.2006 22.7876 14.6527 21.9293 14.8778 21.0007C15.1711 20.0572 15.6542 19.8957 16.541 20.1677C16.3932 21.3186 15.9864 22.4209 15.3511 23.3919C14.7158 24.3629 13.8686 25.1771 12.8733 25.7734C11.2291 26.6728 9.34267 27.0292 7.48372 26.7918C5.62476 26.5544 3.88847 25.7353 2.52309 24.4517C1.17304 22.9321 0.35711 21.0127 0.199752 18.9862C0.199752 18.6533 0.0864184 18.3416 0.0099184 18.0427C0.00302211 17.4954 -0.000283515 16.9481 1.73594e-06 16.4008L0.00283507 16.3993ZM1.59942 15.9942H15.2759C15.1909 11.6365 12.4412 8.54535 8.77342 8.51701C4.69058 8.46035 1.76942 11.4835 1.5895 15.9743L1.59942 15.9942Z" fill="#FFD233"/>
</g>
<defs>
<clipPath id="clip0_301_2">
<rect width="34" height="34" fill="white"/>
</clipPath>
</defs>
</svg>
