<svg width="37" height="37" viewBox="0 0 37 37" fill="none" xmlns="http://www.w3.org/2000/svg">
<g clip-path="url(#clip0_202_20)">
<path d="M26.8152 12.84L26.8016 12.8342C26.7933 12.8318 26.7857 12.8275 26.7793 12.8217C26.7682 12.8098 26.7601 12.7955 26.7554 12.7799C26.7507 12.7644 26.7496 12.7479 26.7523 12.7319L27.4991 8.1715L31.0009 11.6705L27.359 13.2182C27.3489 13.2223 27.3381 13.2243 27.3272 13.224H27.3126C27.3055 13.2194 27.299 13.2138 27.2933 13.2076C27.1577 13.0568 26.9957 12.9323 26.8152 12.84V12.84ZM31.8946 12.5621L35.6388 16.3023C36.4164 17.08 36.8059 17.4679 36.9478 17.9177C36.9691 17.9842 36.9864 18.0508 37 18.1193L28.0516 14.3337C28.0468 14.3318 28.042 14.3298 28.0372 14.328C28.0013 14.3135 27.9599 14.297 27.9599 14.2605C27.9599 14.2238 28.0024 14.2064 28.0381 14.192L28.0496 14.187L31.8946 12.5621ZM36.8474 19.3198C36.6541 19.6826 36.2773 20.0589 35.6398 20.6967L31.4182 24.9127L25.9582 23.777L25.9293 23.7712C25.8809 23.7634 25.8298 23.7547 25.8298 23.7114C25.809 23.4863 25.7421 23.268 25.6332 23.0699C25.5244 22.8718 25.3759 22.6983 25.197 22.5602C25.1747 22.5379 25.1807 22.5032 25.1873 22.4713C25.1873 22.4665 25.1873 22.4617 25.1893 22.4578L26.2162 16.1605L26.22 16.1392C26.2258 16.0909 26.2344 16.035 26.2779 16.035C26.498 16.0077 26.7104 15.9369 26.9028 15.8267C27.0952 15.7166 27.2637 15.5692 27.3986 15.3933C27.4073 15.3836 27.4131 15.3731 27.4247 15.3673C27.4556 15.3528 27.4923 15.3673 27.5242 15.3807L36.8465 19.3198H36.8474V19.3198ZM30.4475 25.8825L23.5056 32.8168L24.6936 25.5216L24.6956 25.5119C24.6965 25.5024 24.6985 25.4931 24.7014 25.484C24.7111 25.4609 24.7361 25.4512 24.7604 25.4415L24.7719 25.4366C25.0321 25.3258 25.2622 25.1548 25.4434 24.9379C25.4666 24.9108 25.4946 24.8847 25.5303 24.8799C25.5395 24.8784 25.5491 24.8784 25.5583 24.8799L30.4464 25.8835L30.4474 25.8825H30.4475ZM22.0361 34.2845L21.2536 35.0662L12.6028 22.5775C12.5997 22.5729 12.5965 22.5684 12.5932 22.5639C12.5797 22.5456 12.5651 22.5274 12.5681 22.5061C12.569 22.4906 12.5787 22.4772 12.5894 22.4656L12.5989 22.4531C12.6249 22.4143 12.6474 22.3757 12.6715 22.3343L12.6907 22.3006L12.6936 22.2977C12.7072 22.2746 12.7196 22.2523 12.7429 22.2397C12.7631 22.2301 12.7913 22.234 12.8134 22.2387L22.3974 24.213C22.4243 24.2174 22.4495 24.2282 22.4709 24.2448C22.4834 24.2575 22.4863 24.271 22.4892 24.2864C22.5561 24.5392 22.6806 24.7731 22.8529 24.9697C23.0251 25.1664 23.2406 25.3206 23.4823 25.4203C23.5093 25.4337 23.4977 25.4637 23.4852 25.4955C23.4789 25.5094 23.4741 25.524 23.4707 25.539C23.35 26.2723 22.3145 32.5814 22.0361 34.2845V34.2845ZM20.4016 35.9163C19.8249 36.4866 19.4848 36.7885 19.1004 36.9102C18.7213 37.03 18.3145 37.03 17.9355 36.9102C17.4852 36.7673 17.0959 36.3795 16.3182 35.6017L7.63067 26.9237L9.89981 23.4083C9.90943 23.3906 9.92262 23.3752 9.93855 23.3629C9.96268 23.3456 9.99752 23.3534 10.0264 23.3629C10.5473 23.5199 11.1064 23.4916 11.6087 23.2828C11.6348 23.2733 11.6609 23.2665 11.6813 23.2848C11.6914 23.2941 11.7005 23.3044 11.7083 23.3156L20.4016 35.9173V35.9163V35.9163ZM6.79311 26.087L4.80017 24.0964L8.73576 22.4193C8.74584 22.4148 8.7567 22.4125 8.7677 22.4125C8.80051 22.4125 8.81988 22.4453 8.83722 22.4752C8.87682 22.5359 8.91873 22.5951 8.96296 22.6528L8.97539 22.6681C8.98695 22.6846 8.97929 22.7009 8.96773 22.7164L6.79398 26.087H6.79311ZM3.91824 23.2153L1.39689 20.6967C0.967926 20.2683 0.656895 19.9576 0.440531 19.6904L8.1069 21.2788L8.13581 21.2835C8.18321 21.2912 8.23554 21.2999 8.23554 21.3442C8.23554 21.3925 8.17845 21.4148 8.13003 21.433L8.10791 21.4427L3.91824 23.2153V23.2153ZM0 18.3952C0.00877008 18.233 0.0380043 18.0726 0.0870078 17.9177C0.229949 17.4679 0.618305 17.08 1.39689 16.3023L4.62341 13.0792C6.10902 15.233 7.59866 17.3839 9.09232 19.5321C9.11833 19.5668 9.14724 19.6054 9.11746 19.6343C8.9764 19.7896 8.83534 19.9595 8.7359 20.1439C8.72506 20.1675 8.70844 20.1881 8.68748 20.2036C8.67491 20.2114 8.66147 20.2085 8.64702 20.2056H8.64499L0 18.3943V18.3954V18.3952ZM5.48713 12.2165L9.82552 7.88288C10.2331 8.06137 11.717 8.68763 13.0442 9.24725C14.049 9.67203 14.9648 10.0581 15.2527 10.1834C15.2816 10.1949 15.3077 10.2065 15.3203 10.2354C15.328 10.2528 15.3242 10.275 15.3203 10.2934C15.2516 10.6062 15.2619 10.9313 15.3501 11.2392C15.4383 11.5471 15.6017 11.8283 15.8256 12.0574C15.8545 12.0863 15.8256 12.1278 15.8004 12.1635L15.7869 12.1837L11.3818 18.9994C11.3703 19.0187 11.3596 19.0351 11.3402 19.0476C11.3171 19.0621 11.2843 19.0553 11.2571 19.0486C11.0858 19.0038 10.9097 18.9798 10.7326 18.9772C10.5742 18.9772 10.4022 19.0061 10.2283 19.0379H10.2273C10.2081 19.0408 10.1906 19.0447 10.1753 19.0332C10.1582 19.0193 10.1435 19.0027 10.1318 18.984L5.48713 12.2165ZM10.7018 7.00759L16.3183 1.39732C17.0959 0.620469 17.4852 0.23168 17.9353 0.0897502C18.3144 -0.0299981 18.7213 -0.0299981 19.1004 0.0897502C19.5506 0.23168 19.9398 0.620469 20.7175 1.39732L21.9348 2.61327L17.9402 8.79284C17.9303 8.81081 17.9169 8.82656 17.9006 8.83909C17.8765 8.85557 17.8427 8.84878 17.8136 8.83909C17.4987 8.74363 17.1653 8.72626 16.8421 8.78848C16.519 8.8507 16.2158 8.99065 15.9589 9.19623C15.9328 9.22326 15.8941 9.20779 15.8613 9.19334C15.3395 8.96657 11.2823 7.25373 10.7017 7.00774L10.7018 7.00759ZM22.7829 3.46051L26.4713 7.14461L25.5825 12.6432V12.6576C25.5817 12.6702 25.5791 12.6825 25.5748 12.6943C25.5651 12.7135 25.5458 12.7174 25.5264 12.7232C25.3364 12.7807 25.1575 12.8698 24.9971 12.9867C24.9902 12.9916 24.9837 12.9971 24.9777 13.003C24.9671 13.0146 24.9565 13.0253 24.9392 13.0272C24.925 13.0276 24.9108 13.0253 24.8975 13.0204L19.2771 10.635L19.2666 10.6301C19.2308 10.6157 19.1883 10.5983 19.1883 10.5616C19.1552 10.2487 19.0529 9.94711 18.8888 9.67868C18.8618 9.63431 18.8318 9.58806 18.855 9.54267L22.7829 3.46051V3.46051ZM18.9845 11.7648L24.2532 13.9939C24.2821 14.0074 24.3141 14.02 24.3266 14.0499C24.3316 14.0678 24.3316 14.0868 24.3266 14.1048C24.3112 14.1821 24.2977 14.2699 24.2977 14.3587V14.5063C24.2977 14.543 24.26 14.5583 24.2252 14.5728L24.2146 14.5767C23.38 14.9328 12.4966 19.5685 12.4801 19.5685C12.4638 19.5685 12.4463 19.5685 12.43 19.5522C12.4011 19.5233 12.43 19.4828 12.456 19.446L12.4696 19.4267L16.7993 12.7299L16.807 12.7183C16.8321 12.6777 16.8612 12.6323 16.9076 12.6323L16.9509 12.6391C17.0495 12.6526 17.1365 12.6651 17.2244 12.6651C17.8813 12.6651 18.4899 12.3457 18.857 11.7995C18.8657 11.7851 18.8768 11.7721 18.8898 11.7609C18.9158 11.7417 18.9546 11.7514 18.9845 11.7648V11.7648ZM12.9506 20.6281L24.8136 15.5745C24.8136 15.5745 24.8309 15.5745 24.8474 15.591C24.912 15.6556 24.9671 15.699 25.0202 15.7396L25.0463 15.7559C25.0705 15.7695 25.0947 15.7848 25.0966 15.81C25.0966 15.8197 25.0966 15.8254 25.0947 15.8341L24.0783 22.0698L24.0744 22.0949C24.0678 22.1431 24.061 22.1981 24.0156 22.1981C23.7447 22.2163 23.4824 22.3003 23.2513 22.4427C23.0202 22.5851 22.8273 22.7817 22.6892 23.0154L22.6843 23.0231C22.6709 23.0454 22.6583 23.0665 22.6361 23.078C22.6158 23.0879 22.5898 23.0839 22.5684 23.0792L13.1081 21.1299C13.0984 21.128 12.9613 20.6291 12.9506 20.6281V20.6281Z" fill="url(#paint0_radial_202_20)"/>
</g>
<defs>
<radialGradient id="paint0_radial_202_20" cx="0" cy="0" r="1" gradientUnits="userSpaceOnUse" gradientTransform="translate(18.5 -18.5001) scale(37 37.0001)">
<stop stop-color="#20C6B7"/>
<stop offset="1" stop-color="#4D9ABF"/>
</radialGradient>
<clipPath id="clip0_202_20">
<rect width="37" height="37" fill="white"/>
</clipPath>
</defs>
</svg>
