<svg width="34" height="34" viewBox="0 0 34 34" fill="none" xmlns="http://www.w3.org/2000/svg">
<g clip-path="url(#clip0_205_32)">
<path d="M33.8683 20.3596C33.6644 19.7608 33.1304 19.3438 32.4397 19.2437C32.1141 19.1966 31.7411 19.2167 31.2998 19.3049C30.5306 19.4588 29.9599 19.5174 29.5434 19.5287C31.1155 16.9549 32.3938 14.0198 33.1297 11.257C34.3197 6.78944 33.6838 4.7542 32.9407 3.83363C30.9741 1.39696 28.105 0.0879588 24.6436 0.0479058C22.7971 0.0260118 21.1762 0.379535 20.3305 0.633762C19.5432 0.49905 18.6967 0.423838 17.8084 0.409929C16.1434 0.384171 14.6722 0.736148 13.4151 1.45955C12.7192 1.23134 11.6022 0.909625 10.3124 0.704338C7.27867 0.221383 4.83359 0.597701 3.04514 1.82286C0.879495 3.30624 -0.124434 5.88354 0.0612376 9.48316C0.120206 10.626 0.779488 14.1033 1.81755 17.401C2.41414 19.2965 3.05032 20.8706 3.7084 22.0799C4.64168 23.7947 5.64029 24.8045 6.76136 25.1672C7.3897 25.3702 8.53136 25.5124 9.73211 24.5426C9.88432 24.7213 10.0874 24.8989 10.3569 25.0639C10.6991 25.2732 11.1176 25.4442 11.5356 25.5456C13.0418 25.9107 14.4527 25.8194 15.6563 25.3076C15.6638 25.5152 15.6695 25.7135 15.6743 25.8848C15.6822 26.1626 15.6902 26.435 15.7007 26.6897C15.772 28.4121 15.8929 29.7514 16.2509 30.6885C16.2706 30.74 16.297 30.8185 16.3249 30.9019C16.5036 31.4322 16.8023 32.3201 17.5622 33.0154C18.3491 33.7357 19.301 33.9566 20.1728 33.9566C20.61 33.9566 21.0272 33.901 21.393 33.825C22.6973 33.5539 24.1785 33.141 25.2501 31.6615C26.2632 30.2628 26.7556 28.1562 26.8447 24.837C26.8563 24.7431 26.8669 24.6535 26.8771 24.5681L26.8984 24.3927L27.1371 24.413L27.1985 24.417C28.5269 24.4757 30.1512 24.2026 31.1488 23.7532C31.937 23.3986 34.463 22.1054 33.8683 20.3596" fill="black"/>
<path d="M31.5969 20.699C27.647 21.4892 27.3754 20.1924 27.3754 20.1924C31.5458 14.1918 33.2892 6.57488 31.7848 4.71067C27.6804 -0.374515 20.5756 2.03047 20.457 2.0928L20.4189 2.0995C19.6385 1.94238 18.7652 1.84888 17.7836 1.8333C15.9965 1.80496 14.6407 2.28766 13.612 3.04416C13.612 3.04416 0.937656 -2.01901 1.52721 9.41195C1.65259 11.8437 5.12165 27.8123 9.25929 22.989C10.7716 21.2253 12.233 19.734 12.233 19.734C12.9586 20.2015 13.8275 20.4401 14.7383 20.3544L14.8091 20.2962C14.7871 20.5151 14.7972 20.7293 14.8374 20.9829C13.7715 22.1377 14.0848 22.3404 11.9539 22.7658C9.79771 23.1968 11.0643 23.9638 11.8914 24.1645C12.894 24.4075 15.2134 24.7519 16.7806 22.6244L16.7182 22.8672C17.1357 23.1916 17.429 24.9771 17.3798 26.5959C17.3307 28.2145 17.2979 29.3258 17.6269 30.1938C17.9561 31.0618 18.284 33.0149 21.0853 32.4329C23.4259 31.9465 24.6388 30.686 24.8076 28.5834C24.9273 27.0887 25.1984 27.3097 25.2154 25.9733L25.4328 25.3407C25.6834 23.3145 25.4726 22.6607 26.9146 22.9648L27.2652 22.9947C28.3264 23.0414 29.7156 22.8291 30.5309 22.4616C32.2865 21.6717 33.3277 20.3525 31.5966 20.699H31.5969" fill="#336791"/>
<path d="M14.3538 10.4994C13.9979 10.4514 13.6756 10.4958 13.5125 10.6156C13.4208 10.683 13.3924 10.761 13.3847 10.8147C13.3642 10.957 13.467 11.1144 13.5303 11.1955C13.709 11.4253 13.9701 11.5832 14.2286 11.618C14.266 11.6231 14.3034 11.6254 14.3404 11.6254C14.7714 11.6254 15.1633 11.3 15.1979 11.0598C15.241 10.7589 14.7906 10.5584 14.3538 10.4996M26.1455 10.509C26.1115 10.2732 25.6788 10.2059 25.2681 10.2613C24.858 10.3167 24.4603 10.4962 24.4935 10.7325C24.5201 10.9163 24.8624 11.23 25.2674 11.23C25.3017 11.23 25.3362 11.2279 25.371 11.2231C25.6414 11.1868 25.8399 11.0203 25.9342 10.9243C26.0776 10.778 26.1607 10.615 26.1455 10.509" fill="white"/>
<path d="M32.9112 20.6093C32.7606 20.1677 32.2758 20.0256 31.4704 20.1868C29.0792 20.6654 28.2228 20.3339 27.9416 20.1331C29.8003 17.3874 31.3294 14.0683 32.1543 10.9716C32.545 9.50467 32.7609 8.14235 32.7785 7.03194C32.798 5.81322 32.5839 4.91763 32.1425 4.37054C30.3625 2.16505 27.7501 0.982003 24.5878 0.949548C22.4138 0.925851 20.577 1.46534 20.221 1.61706C19.4711 1.43624 18.6536 1.32522 17.7637 1.31106C16.1317 1.28543 14.7209 1.66432 13.553 2.43666C13.0456 2.25353 11.7345 1.81706 10.1311 1.56657C7.359 1.13384 5.15617 1.46174 3.5842 2.54162C1.70849 3.83028 0.842554 6.13377 1.0103 9.38799C1.06674 10.4828 1.71009 13.8509 2.7253 17.0764C4.06166 21.3217 5.51437 23.725 7.04277 24.2195C7.22167 24.2773 7.42793 24.3177 7.65544 24.3177C8.21298 24.3177 8.89657 24.0741 9.60778 23.2449C10.4753 22.2358 11.3726 21.2512 12.2987 20.2923C12.8995 20.605 13.5596 20.7797 14.2347 20.7972C14.236 20.8143 14.2378 20.8314 14.2394 20.8484C14.1231 20.9828 14.0094 21.1191 13.898 21.2573C13.4303 21.8331 13.3329 21.953 11.8272 22.2536C11.3989 22.3394 10.2614 22.5667 10.2446 23.34C10.2266 24.1848 11.5893 24.5396 11.7446 24.5772C12.2857 24.7086 12.807 24.7734 13.3041 24.7734C14.5131 24.7734 15.577 24.388 16.4273 23.6425C16.4011 26.6543 16.5306 29.6221 16.9036 30.5263C17.209 31.2666 17.9552 33.0757 20.3121 33.0756C20.6579 33.0756 21.0386 33.0365 21.4573 32.9495C23.9171 32.4382 24.9853 31.3839 25.3985 29.0597C25.6197 27.8175 25.9991 24.8514 26.1776 23.2604C26.5543 23.3744 27.0392 23.4265 27.5634 23.4264C28.6567 23.4264 29.9183 23.2011 30.7094 22.845C31.5982 22.4448 33.2021 21.4626 32.9112 20.6093V20.6093ZM27.0534 9.85806C27.0453 10.3278 26.9786 10.7542 26.9079 11.1993C26.8318 11.678 26.7532 12.1729 26.7334 12.7737C26.7139 13.3584 26.7892 13.9663 26.862 14.5542C27.0091 15.7416 27.1601 16.9641 26.5756 18.1703C26.4785 18.0035 26.3921 17.831 26.3167 17.654C26.244 17.4832 26.0862 17.2089 25.8677 16.8292C25.0179 15.3513 23.0277 11.8902 24.0465 10.4779C24.35 10.0576 25.1201 9.62534 27.0534 9.85806V9.85806ZM24.71 1.90065C27.5434 1.96131 29.7848 2.98916 31.3716 4.9555C32.5887 6.46373 31.2485 13.3264 27.3687 19.247C27.3296 19.1988 27.2904 19.1509 27.251 19.1031L27.2019 19.0436C28.2045 17.438 28.0084 15.8494 27.8339 14.441C27.7622 13.863 27.6945 13.317 27.7117 12.8042C27.7295 12.2607 27.8036 11.7945 27.8753 11.3438C27.9634 10.7883 28.053 10.2135 28.0283 9.53596C28.0468 9.46487 28.0542 9.3809 28.0445 9.28122C27.9815 8.63149 27.2165 6.68692 25.6572 4.9269C24.8043 3.96422 23.5605 2.8869 21.8623 2.16028C22.5927 2.01347 23.5916 1.87656 24.71 1.90065V1.90065ZM8.85513 22.6381C8.07154 23.5517 7.53046 23.3765 7.35249 23.3191C6.19304 22.9441 4.84765 20.5677 3.6615 16.7993C2.63512 13.5387 2.03534 10.2599 1.9878 9.34046C1.83798 6.43269 2.56487 4.40622 4.14839 3.31718C6.72548 1.54506 10.9625 2.60576 12.665 3.14371C12.6406 3.16715 12.6151 3.18904 12.5909 3.21287C9.79704 5.94884 9.86331 10.6233 9.87022 10.9091C9.86995 11.0193 9.87952 11.1754 9.89253 11.3901C9.94061 12.1764 10.0301 13.6397 9.79106 15.2968C9.569 16.8367 10.0585 18.3439 11.1339 19.432C11.2443 19.5435 11.3603 19.6496 11.4815 19.7499C11.0028 20.247 9.96252 21.3463 8.85513 22.6381V22.6381ZM11.8406 18.7753C10.9739 17.8983 10.5802 16.6784 10.7605 15.4281C11.0128 13.6777 10.9197 12.1531 10.8696 11.334C10.8626 11.2194 10.8564 11.1189 10.8528 11.0397C11.2609 10.6887 13.1523 9.70609 14.5011 10.0058C15.1166 10.1424 15.4916 10.5489 15.6476 11.2479C16.4545 14.8673 15.7543 16.3758 15.1917 17.588C15.0758 17.8378 14.9662 18.0738 14.8727 18.318L14.8002 18.5068C14.6167 18.9841 14.4459 19.4279 14.34 19.8493C13.4186 19.8467 12.5222 19.465 11.8406 18.7752V18.7753ZM11.9821 23.6564C11.713 23.5912 11.471 23.478 11.329 23.3841C11.4476 23.33 11.6587 23.2564 12.0247 23.1832C13.796 22.8297 14.0696 22.5801 14.667 21.8446C14.8039 21.6759 14.9592 21.4848 15.1742 21.2519L15.1745 21.2517C15.4947 20.9039 15.6412 20.9629 15.9068 21.0698C16.1221 21.1561 16.3318 21.4178 16.4168 21.7058C16.4571 21.8418 16.5022 22.0999 16.3544 22.3008C15.1065 23.9951 13.288 23.9733 11.9821 23.6564V23.6564ZM21.2522 32.0214C19.0853 32.4717 18.318 31.3995 17.8124 30.1738C17.4861 29.3826 17.3256 25.8144 17.4395 21.8738C17.4409 21.8214 17.4332 21.7708 17.4184 21.7232C17.405 21.6291 17.3848 21.536 17.3578 21.4447C17.1886 20.8714 16.7762 20.3918 16.2815 20.1929C16.0849 20.114 15.7242 19.9691 15.2907 20.0766C15.3831 19.7072 15.5434 19.2901 15.7173 18.8384L15.7902 18.6485C15.8723 18.4343 15.9753 18.2124 16.0843 17.9775C16.673 16.7092 17.4793 14.972 16.6042 11.0474C16.2764 9.57743 15.1818 8.85957 13.5224 9.02635C12.5277 9.12616 11.6175 9.51536 11.1635 9.73855C11.0659 9.78646 10.9767 9.83282 10.8933 9.8779C11.02 8.39684 11.4986 5.62893 13.2892 3.87767C14.4167 2.77525 15.9181 2.23073 17.7475 2.26009C21.352 2.31728 23.6635 4.11103 24.9679 5.60587C26.0921 6.89388 26.7007 8.19142 26.9437 8.89125C25.1168 8.71108 23.8744 9.06074 23.2446 9.93392C21.8743 11.8333 23.9942 15.5197 25.013 17.2914C25.1998 17.6161 25.3611 17.8967 25.4118 18.016C25.7436 18.7957 26.1731 19.3162 26.4867 19.6962C26.5828 19.8126 26.676 19.9255 26.747 20.0242C26.1937 20.1789 25.1998 20.5363 25.2904 22.3227C25.2174 23.219 24.6979 27.4157 24.434 28.8984C24.0857 30.8573 23.3423 31.5869 21.2522 32.0216V32.0214ZM30.2973 21.9842C29.7315 22.2388 28.7847 22.4298 27.8853 22.4709C26.8919 22.516 26.3861 22.363 26.2671 22.2688C26.2113 21.1556 26.6386 21.0393 27.0908 20.9162C27.1619 20.8969 27.2312 20.8779 27.2981 20.8553C27.3397 20.8881 27.3853 20.9207 27.4352 20.9526C28.2337 21.4637 29.6578 21.5188 31.6685 21.1163L31.6905 21.1121C31.4193 21.3579 30.9553 21.6879 30.2973 21.9842Z" fill="white"/>
</g>
<defs>
<clipPath id="clip0_205_32">
<rect width="34" height="34" fill="white"/>
</clipPath>
</defs>
</svg>
