<svg width="40" height="35" viewBox="0 0 40 35" fill="none" xmlns="http://www.w3.org/2000/svg">
<g clip-path="url(#clip0_202_2)">
<path d="M32.888 11.3328C32.4623 11.1893 32.033 11.0564 31.6005 10.9341C31.6731 10.6425 31.74 10.3543 31.7994 10.0713C32.7741 5.42285 32.1369 1.67801 29.9605 0.445025C27.8737 -0.736993 24.4611 0.495529 21.0145 3.44244C20.6749 3.73339 20.3427 4.03272 20.0184 4.34016C19.8013 4.13572 19.5804 3.93526 19.3558 3.73886C15.7436 0.587942 12.123 -0.740063 9.94891 0.49645C7.86406 1.68215 7.24672 5.20257 8.12422 9.60796C8.21152 10.0443 8.31009 10.4783 8.41984 10.9097C7.90734 11.0528 7.41281 11.2051 6.93953 11.3672C2.70453 12.8178 0 15.0911 0 17.4492C0 19.8846 2.90344 22.3274 7.31438 23.8086C7.67198 23.9282 8.03256 24.039 8.39578 24.1409C8.27782 24.6056 8.17309 25.0733 8.08172 25.5437C7.24516 29.8727 7.89844 33.3099 9.97766 34.488C12.1252 35.7048 15.7295 34.4543 19.2391 31.4401C19.5236 31.1951 19.802 30.9431 20.0738 30.6844C20.4249 31.0173 20.7855 31.3405 21.155 31.6537C24.5547 34.5277 27.9122 35.6882 29.9894 34.5068C32.1348 33.2865 32.8322 29.594 31.9269 25.1016C31.8556 24.7497 31.7756 24.3994 31.687 24.0513C31.9402 23.9776 32.1886 23.9018 32.4308 23.8229C37.0164 22.3303 40 19.9171 40 17.4492C40 15.0825 37.2081 12.7939 32.888 11.3328V11.3328ZM31.8934 22.2295C31.6747 22.3005 31.4503 22.3691 31.2216 22.4359C30.7153 20.8614 30.0322 19.1872 29.1961 17.4573C29.9939 15.7687 30.6508 14.1159 31.1428 12.5516C31.552 12.668 31.9491 12.7907 32.3319 12.9201C36.0334 14.1721 38.2912 16.0229 38.2912 17.4492C38.2912 18.9683 35.8528 20.9404 31.8934 22.2295V22.2295ZM30.2506 25.4277C30.6509 27.4141 30.708 29.2101 30.4428 30.6143C30.2047 31.8759 29.7256 32.717 29.1331 33.054C27.8727 33.7709 25.1769 32.8391 22.2695 30.3811C21.9258 30.0899 21.5904 29.7894 21.2637 29.48C22.3909 28.2689 23.5173 26.8611 24.6167 25.2975C26.5505 25.1289 28.3773 24.8532 30.0341 24.477C30.1139 24.7921 30.1861 25.1091 30.2506 25.4277V25.4277ZM13.6369 32.9301C12.4053 33.3573 11.4244 33.3696 10.8314 33.0337C9.56969 32.3188 9.04516 29.5589 9.76062 25.8569C9.84567 25.4194 9.94305 24.9843 10.0527 24.5522C11.6911 24.9083 13.5047 25.1644 15.443 25.3188C16.5498 26.8488 17.7087 28.2551 18.8767 29.4866C18.6285 29.7225 18.3744 29.9525 18.1147 30.1761C16.5627 31.5089 15.0075 32.4545 13.6369 32.9301V32.9301ZM7.86719 22.2201C5.91672 21.5651 4.30594 20.7139 3.20188 19.785C2.20969 18.9504 1.70891 18.1216 1.70891 17.4492C1.70891 16.0182 3.88031 14.193 7.50203 12.9525C7.94156 12.802 8.40156 12.66 8.87891 12.5268C9.37953 14.1263 10.0361 15.7988 10.8284 17.49C10.0258 19.2062 9.35984 20.9054 8.85437 22.5239C8.52283 22.4306 8.19367 22.3293 7.86719 22.2201V22.2201ZM9.80125 9.28544C9.04953 5.51112 9.54875 2.66399 10.8052 1.94941C12.1433 1.18831 15.1023 2.27347 18.2212 4.99426C18.4246 5.17208 18.6247 5.3535 18.8214 5.53844C17.6592 6.76452 16.5109 8.16037 15.4139 9.68134C13.5327 9.85266 11.7319 10.1277 10.0762 10.4963C9.97424 10.0951 9.88255 9.69137 9.80125 9.28559V9.28544ZM27.0555 13.4713C26.6644 12.8077 26.2588 12.1524 25.8391 11.5059C27.1153 11.6645 28.3381 11.875 29.4864 12.1323C29.1417 13.2179 28.712 14.3528 28.2063 15.5164C27.8366 14.8272 27.4529 14.1454 27.0555 13.4713V13.4713ZM20.0192 6.73827C20.8073 7.57719 21.5967 8.51375 22.3731 9.52998C20.7981 9.4569 19.2205 9.45659 17.6455 9.52906C18.4227 8.52219 19.2188 7.58687 20.0192 6.73827ZM12.9378 13.4828C12.5454 14.1515 12.1689 14.8291 11.8086 15.515C11.3111 14.3555 10.8853 13.2154 10.5377 12.1145C11.6789 11.8636 12.8959 11.6585 14.1641 11.5029C13.7396 12.1533 13.3307 12.8134 12.9378 13.4827V13.4828ZM14.2005 23.5149C12.8903 23.3713 11.655 23.1768 10.5141 22.9327C10.8672 21.8121 11.3023 20.6477 11.8106 19.4634C12.1723 20.1498 12.5504 20.8278 12.9445 21.4968C13.3498 22.1845 13.7695 22.8581 14.2005 23.5149ZM20.0664 28.2783C19.2564 27.4199 18.4486 26.4701 17.6597 25.4487C18.4256 25.4782 19.2064 25.4932 20 25.4932C20.8153 25.4932 21.6213 25.4752 22.4145 25.4405C21.6356 26.4804 20.8492 27.4316 20.0664 28.2783ZM28.2223 19.4029C28.757 20.6003 29.2077 21.7585 29.5655 22.8599C28.4058 23.12 27.1536 23.3293 25.8342 23.4848C26.257 22.8264 26.6664 22.1597 27.0622 21.4852C27.4646 20.7997 27.8514 20.1054 28.2223 19.4029V19.4029ZM25.582 20.6465C24.9761 21.6806 24.3361 22.695 23.6631 23.6882C22.444 23.7731 21.2222 23.8152 20 23.8146C18.7552 23.8146 17.5444 23.7765 16.3784 23.7022C15.6878 22.7113 15.0357 21.6951 14.4233 20.6557H14.4234C13.8139 19.6218 13.2446 18.5656 12.7167 17.4893C13.2433 16.4127 13.8109 15.3559 14.4183 14.3213L14.4181 14.3214C15.0253 13.2865 15.6723 12.2746 16.3577 11.288C17.5472 11.1995 18.767 11.1535 19.9998 11.1535H20C21.2384 11.1535 22.4598 11.2 23.6491 11.289C24.3275 12.2742 24.9704 13.2826 25.5764 14.3124C26.1858 15.3448 26.7609 16.3963 27.3008 17.4655C26.7665 18.5455 26.1932 19.6065 25.582 20.6465V20.6465ZM29.107 1.89937C30.4464 2.65831 30.9673 5.71882 30.1258 9.7323C30.072 9.98836 30.0117 10.2492 29.9461 10.5137C28.2864 10.1373 26.4844 9.85741 24.5977 9.68349C23.4986 8.14579 22.3597 6.74779 21.2164 5.53752C21.516 5.25376 21.8228 4.97736 22.1364 4.70858C25.0895 2.18382 27.8495 1.18693 29.107 1.89937V1.89937ZM20 13.94C21.9727 13.94 23.5719 15.5111 23.5719 17.4492C23.5719 19.3872 21.9727 20.9584 20 20.9584C18.0273 20.9584 16.4281 19.3872 16.4281 17.4492C16.4281 15.5111 18.0273 13.94 20 13.94V13.94Z" fill="#00D8FF"/>
</g>
<defs>
<clipPath id="clip0_202_2">
<rect width="40" height="35" fill="white"/>
</clipPath>
</defs>
</svg>
