<svg width="35" height="35" viewBox="0 0 35 35" fill="none" xmlns="http://www.w3.org/2000/svg">
<g clip-path="url(#clip0_202_16)">
<path d="M24.2513 24.3469C25.5429 24.2067 26.5228 23.0385 26.4782 21.6365C26.4337 20.2346 25.3202 19.113 23.984 19.113H23.895C22.5142 19.1598 21.4453 20.3747 21.4899 21.8234C21.5344 22.5244 21.8016 23.1318 22.2024 23.5524C20.6881 26.6835 18.3721 28.9733 14.8981 30.8892C12.5375 32.1977 10.0879 32.665 7.63834 32.338C5.63404 32.0576 4.07517 31.123 3.09517 29.5807C1.67002 27.291 1.53644 24.8141 2.73902 22.3375C3.58531 20.5616 4.92133 19.2532 5.76762 18.5989C5.58947 17.9914 5.32219 16.9634 5.18861 16.2158C-1.26957 21.1225 -0.601427 27.7583 1.3583 30.8892C2.82803 33.2259 5.81219 34.6745 9.10806 34.6745C9.99879 34.6745 10.8895 34.581 11.7804 34.3475C17.4814 33.1791 21.8017 29.6275 24.2513 24.3469V24.3469ZM32.0902 18.5523C28.7052 14.3932 23.7169 12.1034 18.0158 12.1034H17.3033C16.9024 11.2623 16.0561 10.7014 15.1208 10.7014H15.0317C13.6511 10.7482 12.5822 11.9631 12.6267 13.4119C12.6712 14.8138 13.7847 15.9353 15.1208 15.9353H15.2098C16.1897 15.8886 17.036 15.2343 17.3923 14.3464H18.194C21.579 14.3464 24.7857 15.3745 27.6809 17.384C29.9078 18.9261 31.5112 20.9356 32.4019 23.3655C33.1591 25.3282 33.1145 27.2442 32.3128 28.8799C31.0658 31.3566 28.9725 32.7118 26.211 32.7118C24.4295 32.7118 22.737 32.1509 21.8462 31.7304C21.3563 32.1977 20.4654 32.9453 19.8419 33.4128C21.7571 34.3473 23.7169 34.8614 25.5875 34.8614C29.8632 34.8614 33.0255 32.3846 34.2281 29.9079C35.5197 27.1974 35.4305 22.5244 32.0902 18.5523V18.5523ZM9.46435 25.1412C9.50892 26.5432 10.6224 27.6646 11.9585 27.6646H12.0477C13.4284 27.618 14.4972 26.4029 14.4527 24.9543C14.4082 23.5523 13.2947 22.4308 11.9585 22.4308H11.8695C11.7804 22.4308 11.6467 22.4308 11.5578 22.4775C9.73164 19.2998 8.97449 15.8418 9.24178 12.1033C9.41978 9.29939 10.3106 6.86932 11.8695 4.85984C13.1611 3.13078 15.6553 2.28963 17.3478 2.24301C22.0689 2.14949 24.073 8.31795 24.2067 10.7948C24.7857 10.9349 25.7656 11.2621 26.4337 11.4958C25.8992 3.92545 21.4453 0 17.1697 0C13.1611 0 9.46435 3.03754 7.99449 7.52371C5.94576 13.5053 7.28191 19.2532 9.77607 23.7861C9.55349 24.1131 9.41978 24.6272 9.46435 25.1413V25.1412Z" fill="#764ABC"/>
</g>
<defs>
<clipPath id="clip0_202_16">
<rect width="35" height="35" fill="white"/>
</clipPath>
</defs>
</svg>
