<svg width="38" height="38" viewBox="0 0 38 38" fill="none" xmlns="http://www.w3.org/2000/svg">
<path d="M10.6875 16.2687C11.7958 11.8354 14.5667 9.61874 19 9.61874C25.65 9.61874 26.4813 14.6062 29.8063 15.4375C32.0229 15.9917 33.9625 15.1604 35.625 12.9437C34.5167 17.3771 31.7458 19.5937 27.3125 19.5937C20.6625 19.5937 19.8312 14.6062 16.5062 13.775C14.2896 13.2208 12.35 14.0521 10.6875 16.2687ZM2.375 26.2437C3.48333 21.8104 6.25417 19.5937 10.6875 19.5937C17.3375 19.5937 18.1688 24.5812 21.4938 25.4125C23.7104 25.9667 25.65 25.1354 27.3125 22.9187C26.2042 27.3521 23.4333 29.5687 19 29.5687C12.35 29.5687 11.5188 24.5812 8.19375 23.75C5.97708 23.1958 4.0375 24.0271 2.375 26.2437Z" fill="#44A8B3"/>
</svg>
