<svg width="34" height="34" viewBox="0 0 34 34" fill="none" xmlns="http://www.w3.org/2000/svg">
<g clip-path="url(#clip0_207_4)">
<path d="M2.65625 0H31.3438C32.8108 0 34 1.1892 34 2.65625V31.3438C34 32.8108 32.8108 34 31.3438 34H2.65625C1.1892 34 0 32.8108 0 31.3438V2.65625C0 1.1892 1.1892 0 2.65625 0Z" fill="#3178C6"/>
<path d="M19.9907 26.6256V30.2939C20.5873 30.5996 21.2929 30.8288 22.1074 30.9817C22.922 31.1346 23.7805 31.2109 24.6831 31.2109C25.5626 31.2109 26.3982 31.1269 27.1898 30.9587C27.9813 30.7906 28.6755 30.5135 29.272 30.1277C29.8686 29.7418 30.3409 29.2373 30.689 28.6145C31.037 27.9917 31.2109 27.2218 31.2109 26.3047C31.2109 25.6399 31.1115 25.0571 30.9126 24.5565C30.716 24.0593 30.4236 23.6056 30.0521 23.2211C29.6775 22.8313 29.228 22.4817 28.7042 22.1721C28.1803 21.8627 27.5894 21.5703 26.9316 21.2953C26.4497 21.0965 26.0177 20.9036 25.6352 20.7164C25.2528 20.5291 24.9277 20.3381 24.6601 20.1431C24.3923 19.9483 24.1858 19.7419 24.0405 19.5241C23.8952 19.3063 23.8226 19.0599 23.8226 18.7847C23.8226 18.5325 23.8875 18.3053 24.0175 18.1027C24.1476 17.9002 24.3313 17.7264 24.5683 17.5812C24.8054 17.4359 25.096 17.3233 25.4402 17.2429C25.7844 17.1627 26.1669 17.1226 26.5875 17.1226C26.8935 17.1226 27.2166 17.1456 27.5569 17.1914C27.8973 17.2372 28.2395 17.3079 28.5838 17.4035C28.9269 17.4986 29.2625 17.6193 29.5876 17.7646C29.9028 17.9043 30.2043 18.0731 30.4882 18.2689V14.8414C29.9298 14.6274 29.3198 14.4689 28.6583 14.3657C27.9967 14.2625 27.2376 14.2109 26.3809 14.2109C25.509 14.2109 24.6831 14.3046 23.9029 14.4918C23.1228 14.679 22.4363 14.9713 21.8435 15.3687C21.2508 15.7662 20.7824 16.2725 20.4381 16.8876C20.094 17.5028 19.9219 18.2383 19.9219 19.0943C19.9219 20.1871 20.2373 21.1194 20.8684 21.8914C21.4994 22.6631 22.4573 23.3166 23.7422 23.8515C24.2166 24.0447 24.687 24.2473 25.1534 24.4591C25.5894 24.6578 25.966 24.8641 26.2835 25.0781C26.6009 25.292 26.8514 25.5251 27.0349 25.7773C27.2185 26.0295 27.3102 26.3161 27.3102 26.6371C27.3118 26.8682 27.2524 27.0955 27.1381 27.2963C27.0235 27.4987 26.8494 27.6745 26.6162 27.8236C26.3829 27.9726 26.0922 28.089 25.7442 28.1731C25.3963 28.2572 24.9889 28.2993 24.5224 28.2993C23.727 28.2993 22.9392 28.1598 22.1591 27.8808C21.3788 27.6019 20.6561 27.1835 19.9907 26.6256V26.6256ZM13.8765 17.497H18.5938V14.4766H5.44531V17.497H10.1396V30.9453H13.8765V17.497Z" fill="white"/>
</g>
<defs>
<clipPath id="clip0_207_4">
<rect width="34" height="34" fill="white"/>
</clipPath>
</defs>
</svg>
