<svg width="37" height="37" viewBox="0 0 37 37" fill="none" xmlns="http://www.w3.org/2000/svg">
<path d="M34.5534 7.10632L19.358 34.2782C19.2866 34.406 19.1826 34.5125 19.0565 34.5869C18.9304 34.6612 18.7868 34.7007 18.6405 34.7013C18.4941 34.7019 18.3502 34.6635 18.2235 34.5902C18.0969 34.5169 17.992 34.4112 17.9196 34.284L2.42351 7.10863C2.34561 6.97228 2.3082 6.81653 2.3157 6.65967C2.32319 6.50281 2.37527 6.35133 2.46583 6.22303C2.55638 6.09472 2.68165 5.99491 2.82694 5.9353C2.97223 5.87568 3.1315 5.85875 3.28608 5.88647L18.4977 8.60597C18.5944 8.62339 18.6935 8.62339 18.7902 8.60597L33.6839 5.8911C33.8379 5.86296 33.9967 5.87918 34.1418 5.93786C34.2869 5.99654 34.4123 6.09526 34.5035 6.22252C34.5946 6.34978 34.6477 6.50032 34.6565 6.65659C34.6654 6.81287 34.6296 6.96844 34.5534 7.10516V7.10632Z" fill="url(#paint0_linear_202_12)"/>
<path d="M25.7428 2.32061L14.4994 4.52326C14.4094 4.54084 14.3278 4.58788 14.2675 4.65697C14.2072 4.72607 14.1716 4.81327 14.1664 4.90483L13.4749 16.5876C13.4711 16.6517 13.4823 16.7158 13.5076 16.7748C13.5329 16.8338 13.5716 16.8861 13.6207 16.9275C13.6697 16.9689 13.7278 16.9983 13.7902 17.0134C13.8526 17.0284 13.9177 17.0287 13.9802 17.0142L17.1102 16.2916C17.1776 16.276 17.2479 16.2776 17.3145 16.2963C17.3812 16.315 17.442 16.3501 17.4915 16.3985C17.5411 16.4468 17.5776 16.5069 17.5979 16.573C17.6181 16.6392 17.6214 16.7094 17.6074 16.7772L16.6778 21.3317C16.6634 21.4018 16.6675 21.4744 16.6897 21.5425C16.7119 21.6105 16.7515 21.6716 16.8044 21.7198C16.8573 21.7679 16.9219 21.8015 16.9917 21.8172C17.0615 21.8328 17.1342 21.8301 17.2027 21.8092L19.1359 21.2218C19.2045 21.2008 19.2773 21.1981 19.3473 21.2138C19.4172 21.2295 19.4819 21.2632 19.5349 21.3115C19.5878 21.3598 19.6273 21.4211 19.6494 21.4893C19.6715 21.5575 19.6755 21.6303 19.6609 21.7005L18.182 28.8542C18.0895 29.3017 18.685 29.5457 18.9336 29.163L19.0989 28.9063L28.2622 10.6202C28.2966 10.5513 28.3111 10.4741 28.3039 10.3974C28.2967 10.3208 28.2683 10.2476 28.2217 10.1863C28.1752 10.1249 28.1124 10.0778 28.0405 10.0503C27.9686 10.0228 27.8904 10.0159 27.8148 10.0305L24.5923 10.6514C24.5229 10.6647 24.4513 10.6599 24.3843 10.6376C24.3173 10.6153 24.2571 10.5762 24.2096 10.524C24.162 10.4718 24.1286 10.4082 24.1126 10.3394C24.0966 10.2707 24.0986 10.1989 24.1182 10.1311L26.2203 2.83976C26.2401 2.77171 26.242 2.6997 26.226 2.63068C26.2099 2.56165 26.1763 2.49793 26.1284 2.44565C26.0805 2.39338 26.02 2.35431 25.9527 2.3322C25.8853 2.3101 25.8134 2.30571 25.7439 2.31945L25.7428 2.32061Z" fill="url(#paint1_linear_202_12)"/>
<defs>
<linearGradient id="paint0_linear_202_12" x1="2.04487" y1="4.91506" x2="20.9555" y2="30.5972" gradientUnits="userSpaceOnUse">
<stop stop-color="#41D1FF"/>
<stop offset="1" stop-color="#BD34FE"/>
</linearGradient>
<linearGradient id="paint1_linear_202_12" x1="17.6235" y1="2.91813" x2="21.0444" y2="26.3848" gradientUnits="userSpaceOnUse">
<stop stop-color="#FFEA83"/>
<stop offset="0.083" stop-color="#FFDD35"/>
<stop offset="1" stop-color="#FFA800"/>
</linearGradient>
</defs>
</svg>
