<svg xmlns="http://www.w3.org/2000/svg" viewBox="0 0 108.05 122.88"><path d="M19.96 66.48a8.842 8.842 0 014.46-2.41l-1.7-1.7a8.902 8.902 0 01-2.6-6.31c0-2.28.86-4.57 2.6-6.31 1.34-1.34 3-2.16 4.75-2.47l-1.37-1.37a8.902 8.902 0 01-2.6-6.31c.01-2.27.88-4.56 2.61-6.3a8.902 8.902 0 016.31-2.6c2.28 0 4.57.86 6.31 2.6l1.39 1.39c.32-1.7 1.13-3.32 2.45-4.63a8.902 8.902 0 016.31-2.6c2.28 0 4.58.87 6.31 2.6l29.99 29.99c.59.44 1.16.92 1.7 1.46l1.76 1.76.01-.3c.07-2.11.07-4.23.06-5.03-.01-5.38 2.32-8.85 5.35-10.42a8.523 8.523 0 014.34-.95c1.48.07 2.95.52 4.29 1.34 3.16 1.94 5.55 5.98 5.21 11.98v.13l.13 27.88.01.01c0 .06 0 .13-.01.2-.08 3.98-.73 7.3-2.03 10.32-1.32 3.07-3.28 5.75-5.93 8.4l-8.98 8.98c-4.78 4.78-11.04 7.12-17.29 7.09-6.3-.05-12.58-2.5-17.37-7.29L44.6 103.78c-.41-.41-.8-.85-1.16-1.29-.18-.1-.35-.22-.5-.38L19.97 79.1a8.902 8.902 0 01-2.6-6.31c-.01-2.29.86-4.57 2.59-6.31zm11.69 42.68c1.29.38 2.03 1.74 1.65 3.03a2.443 2.443 0 01-3.03 1.65c-7.98-2.34-14.32-5.96-19.27-10.67C6.04 98.45 2.5 92.67.13 86.03c-.45-1.27.22-2.67 1.49-3.11 1.27-.45 2.67.22 3.11 1.49 2.11 5.93 5.25 11.06 9.63 15.23 4.4 4.18 10.08 7.41 17.29 9.52zm31.37-89.89c-1.22-.57-1.74-2.03-1.17-3.25s2.03-1.74 3.25-1.17c3.73 1.76 6.99 3.88 9.84 6.32 2.86 2.46 5.29 5.23 7.33 8.3.74 1.12.44 2.64-.69 3.38-1.12.74-2.64.44-3.38-.69-1.79-2.7-3.93-5.14-6.43-7.29-2.52-2.15-5.42-4.03-8.75-5.6zm3.92-14.49a2.443 2.443 0 01-1.65-3.03A2.443 2.443 0 0168.32.1c7.98 2.34 14.32 5.96 19.27 10.67 4.96 4.72 8.5 10.5 10.87 17.14.45 1.27-.22 2.67-1.49 3.11-1.27.45-2.67-.22-3.11-1.49-2.11-5.93-5.25-11.06-9.63-15.23-4.4-4.18-10.08-7.41-17.29-9.52zm23.01 64.94c-3.4 1.51-6.09 3.28-8.09 5.22-2.09 2.03-3.41 4.22-3.97 6.46-.55 2.17-.36 4.42.53 6.62.7 1.72 1.82 3.4 3.38 5l-2.89 2.82c-1.94-2-3.36-4.12-4.24-6.28-1.23-3.01-1.46-6.11-.7-9.14.74-2.96 2.43-5.8 5.06-8.37 1.97-1.91 4.45-3.66 7.46-5.18l-2.5-2.5c-.31-.31-.63-.59-.97-.86-.19-.07-.37-.17-.53-.31a11.01 11.01 0 00-7-1.66c-2.42.25-4.78 1.28-6.62 3.13l-.72.72-.05.05-.05.05-9.75 9.75-.08.08-.08.08-9.75 9.75c-.15.15-.32.28-.51.37l-.36.36a10.829 10.829 0 00-3.12 6.57c-.12 1.19-.05 2.38.2 3.55.5 1.78 1.46 3.47 2.87 4.88l11.83 11.83c4.02 4.02 9.28 6.07 14.52 6.1 5.2.03 10.4-1.93 14.38-5.91l8.98-8.98c2.32-2.32 4-4.6 5.09-7.14 1.09-2.51 1.63-5.35 1.69-8.79v-.15l-.13-27.85c-.01-.09-.01-.19 0-.29l2.03.12-2.02-.12c.26-4.33-1.27-7.14-3.31-8.38-.74-.46-1.55-.71-2.35-.74-.8-.04-1.58.12-2.29.49-1.79.93-3.16 3.17-3.16 6.82 0 .84 0 3.06-.06 5.16-.07 1.97-.2 3.94-.5 5.02-.08.38-.26.74-.55 1.03-.44.5-1.07.69-1.67.62zm-43.3 10.83l6.88-6.88-21.04-21.06c-.94-.94-2.2-1.42-3.44-1.42-1.25 0-2.5.47-3.44 1.42-.94.94-1.42 2.2-1.42 3.44 0 1.25.47 2.5 1.42 3.44l6.99 6.99 14.05 14.07zm9.92-9.92l6.88-6.88-27.59-27.59c-.94-.94-2.2-1.42-3.44-1.42-1.25 0-2.5.47-3.44 1.42-.94.94-1.42 2.2-1.42 3.44 0 1.25.47 2.5 1.42 3.44l27.59 27.59zm9.87-9.82c2.8-2.45 6.33-3.68 9.85-3.68.08 0 .16.01.24 0L52.31 32.92c-.94-.94-2.2-1.42-3.44-1.42-1.25 0-2.49.47-3.44 1.42a4.86 4.86 0 00-1.42 3.44c0 1.25.47 2.5 1.42 3.44l21.01 21.01zM40.16 93.56c0-.11-.01-.22-.01-.32-.04-3.5 1.16-7 3.65-9.79L29.71 69.36a4.86 4.86 0 00-3.44-1.42c-1.25 0-2.5.47-3.44 1.42-.95.95-1.42 2.2-1.42 3.44 0 1.25.47 2.49 1.42 3.44l17.33 17.32z" fill-rule="evenodd" fill='yellow' clip-rule="evenodd"/></svg>