<svg width="62" height="62" viewBox="0 0 62 62" fill="none" xmlns="http://www.w3.org/2000/svg">
<rect width="62" height="62" rx="10" fill="#211F1F"/>
<path d="M44.4766 45.3555C45.1667 45.3555 45.7982 45.2839 46.3711 45.1406C46.944 44.9974 47.543 44.8151 48.168 44.5938V50.1602C47.3346 50.5247 46.4492 50.8177 45.5117 51.0391C44.5872 51.2734 43.4023 51.3906 41.957 51.3906C40.5247 51.3906 39.2617 51.1693 38.168 50.7266C37.0742 50.2708 36.2214 49.4896 35.6094 48.3828C35.0104 47.263 34.7109 45.707 34.7109 43.7148V34.5938H32.0352V31.4883L35.4336 29.0859L37.4062 24.4375H42.4062V28.8711H47.8359V34.5938H42.4062V43.207C42.4062 43.9232 42.5885 44.4635 42.9531 44.8281C43.3177 45.1797 43.8255 45.3555 44.4766 45.3555Z" fill="#FFF9E4"/>
</svg>
