<svg width="62" height="62" viewBox="0 0 62 62" fill="none" xmlns="http://www.w3.org/2000/svg">
<rect width="62" height="62" rx="10" fill="white"/>
<path d="M39.4766 41.3555C40.1667 41.3555 40.7982 41.2839 41.3711 41.1406C41.944 40.9974 42.543 40.8151 43.168 40.5938V46.1602C42.3346 46.5247 41.4492 46.8177 40.5117 47.0391C39.5872 47.2734 38.4023 47.3906 36.957 47.3906C35.5247 47.3906 34.2617 47.1693 33.168 46.7266C32.0742 46.2708 31.2214 45.4896 30.6094 44.3828C30.0104 43.263 29.7109 41.707 29.7109 39.7148V30.5938H27.0352V27.4883L30.4336 25.0859L32.4062 20.4375H37.4062V24.8711H42.8359V30.5938H37.4062V39.207C37.4062 39.9232 37.5885 40.4635 37.9531 40.8281C38.3177 41.1797 38.8255 41.3555 39.4766 41.3555Z" fill="black"/>
</svg>
